<?xml version="1.0" standalone="no"?>
<!DOCTYPE svg PUBLIC "-//W3C//DTD SVG 20010904//EN"
 "http://www.w3.org/TR/2001/REC-SVG-20010904/DTD/svg10.dtd">
<svg version="1.0" xmlns="http://www.w3.org/2000/svg"
 width="1680.000000pt" height="372.000000pt" viewBox="0 0 1680.000000 372.000000"
 preserveAspectRatio="xMidYMid meet">

<g transform="translate(0.000000,372.000000) scale(0.100000,-0.100000)"
fill="#000000" stroke="none">
<path d="M3223 3095 c0 -8 4 -12 9 -9 5 3 6 10 3 15 -9 13 -12 11 -12 -6z"/>
<path d="M3255 3059 c-4 -8 -4 -11 0 -6 5 4 19 -2 31 -14 19 -18 21 -24 11
-41 -10 -16 -9 -21 5 -29 10 -6 21 -28 24 -49 4 -22 10 -40 15 -40 4 0 11 -16
15 -35 3 -20 12 -35 20 -35 8 0 14 -9 14 -20 0 -11 -5 -20 -12 -20 -6 0 -3 -6
7 -14 11 -8 23 -12 27 -10 5 3 8 -3 8 -12 0 -14 -3 -15 -12 -6 -7 7 -18 12
-26 12 -9 0 -4 -9 12 -21 l27 -21 -23 -27 c-22 -24 -22 -25 -1 -7 22 18 22 18
21 -5 -1 -13 -1 -48 0 -76 2 -41 6 -53 18 -53 13 0 15 -8 12 -40 -3 -35 -1
-39 22 -43 17 -3 13 -5 -15 -7 l-40 -2 40 -13 c22 -8 54 -14 71 -14 37 -1 57
-21 52 -52 -2 -17 -16 -27 -53 -39 -27 -10 -49 -23 -47 -29 1 -7 -5 -19 -13
-28 -14 -14 -14 -17 2 -30 10 -8 13 -12 7 -9 -7 3 -14 -1 -18 -9 -3 -8 0 -15
7 -15 17 0 20 -42 4 -52 -9 -6 -9 -8 1 -8 7 0 10 -5 7 -10 -4 -6 -11 -7 -17
-4 -7 4 -8 2 -4 -5 4 -6 2 -19 -5 -27 -8 -10 -10 -36 -6 -84 5 -57 3 -70 -9
-70 -11 0 -14 -14 -14 -60 0 -33 -4 -60 -10 -60 -5 0 -10 -15 -10 -32 0 -18
-7 -42 -15 -52 -8 -10 -12 -23 -9 -28 11 -17 -7 -88 -22 -88 -10 0 -14 -12
-14 -40 0 -22 -4 -40 -10 -40 -5 0 -10 -9 -10 -20 0 -11 -4 -20 -10 -20 -5 0
-12 -16 -16 -35 -3 -19 -12 -39 -18 -43 -7 -4 -20 -32 -28 -62 -9 -30 -21 -54
-27 -52 -6 1 -11 -7 -11 -18 0 -11 -7 -23 -15 -26 -8 -4 -15 -12 -15 -19 0 -7
-5 -15 -11 -17 -10 -3 -17 -26 -18 -66 -1 -13 -5 -20 -11 -17 -5 3 -10 -3 -10
-14 0 -11 -5 -23 -10 -26 -8 -5 -7 -11 1 -21 9 -11 8 -14 -5 -14 -10 0 -16 8
-16 21 0 18 -2 19 -15 9 -8 -7 -13 -16 -10 -20 3 -5 -4 -11 -14 -15 -11 -3
-25 -21 -32 -39 -6 -18 -21 -37 -33 -42 -11 -5 -22 -15 -22 -21 -1 -7 -2 -22
-3 -33 0 -11 -8 -20 -16 -20 -15 0 -75 -54 -75 -67 0 -4 -13 -17 -30 -28 -16
-11 -31 -29 -32 -40 -2 -11 -7 -20 -13 -21 -37 -3 -65 -18 -65 -35 0 -12 -7
-19 -20 -19 -11 0 -20 -4 -20 -10 0 -5 -9 -10 -20 -10 -11 0 -20 -6 -20 -14 0
-7 -9 -16 -20 -19 -13 -3 -18 -10 -14 -21 3 -8 11 -14 16 -13 6 1 13 -4 15
-10 5 -15 -13 -18 -22 -3 -6 9 -13 8 -50 -6 -11 -4 -23 -8 -27 -8 -3 -1 -10
-4 -14 -9 -4 -4 -16 -7 -26 -7 -10 0 -18 -7 -19 -17 0 -11 -3 -13 -6 -5 -2 6
-10 12 -16 12 -5 0 -8 -3 -4 -6 8 -9 -18 -34 -36 -34 -8 0 -18 -7 -21 -16 -3
-8 -10 -12 -16 -9 -5 3 -10 2 -10 -3 0 -5 -18 -12 -40 -16 -23 -3 -43 -13 -46
-21 -4 -8 -12 -15 -19 -15 -8 0 -26 -5 -42 -12 -15 -6 -32 -10 -38 -9 -5 1
-14 -4 -20 -11 -5 -7 -23 -14 -40 -15 -16 -2 -35 -9 -41 -18 -6 -8 -33 -18
-60 -22 -27 -3 -53 -12 -57 -20 -4 -7 -25 -13 -45 -13 -22 0 -32 -4 -25 -8 7
-4 -17 -6 -54 -4 -53 4 -69 1 -78 -11 -9 -13 -33 -17 -104 -18 -51 -1 -88 -5
-81 -9 7 -4 30 -6 51 -4 21 2 40 0 43 -4 2 -4 -34 -9 -81 -10 -80 -2 -85 -1
-72 15 13 16 13 16 -11 0 -13 -9 -38 -17 -55 -17 -29 1 -29 1 -8 13 19 11 16
12 -30 14 -39 2 -48 0 -34 -8 9 -6 22 -7 29 -3 6 4 8 3 5 -2 -7 -12 -144 -18
-151 -6 -2 4 12 9 32 10 69 5 45 12 -41 12 -64 0 -86 3 -84 12 1 9 -22 15 -73
19 -72 6 -130 24 -130 40 0 4 -11 6 -24 5 -14 0 -22 -6 -19 -13 3 -7 -2 -13
-11 -13 -9 0 -16 7 -16 15 0 8 -6 15 -14 15 -7 0 -27 7 -42 15 -16 8 -36 15
-45 15 -9 0 -22 7 -29 15 -7 8 -16 12 -21 10 -9 -6 -1 -35 9 -34 15 2 52 -14
52 -22 0 -18 -20 -18 -30 1 -6 11 -15 18 -20 15 -11 -7 -35 35 -31 55 2 10 -3
8 -13 -5 l-16 -20 6 20 c5 16 4 17 -5 5 -10 -14 -16 -7 -12 13 1 5 -4 5 -10 1
-6 -3 -15 0 -20 7 -6 10 -9 10 -9 2 0 -14 71 -68 195 -151 175 -116 425 -217
651 -263 137 -27 427 -37 572 -20 407 50 785 232 1075 519 166 163 272 311
372 517 131 270 185 505 185 805 0 293 -53 531 -176 788 -50 106 -176 312
-190 312 -3 0 1 -11 10 -25 9 -13 16 -32 16 -42 0 -35 -30 11 -32 50 -4 47
-79 141 -93 116z m65 -63 c0 -3 -4 -8 -10 -11 -5 -3 -10 -1 -10 4 0 6 5 11 10
11 6 0 10 -2 10 -4z m160 -911 c0 -8 -4 -15 -10 -15 -5 0 -10 7 -10 15 0 8 5
15 10 15 6 0 10 -7 10 -15z m0 -58 c0 -5 -4 -5 -10 -2 -5 3 -10 14 -10 23 0
15 2 15 10 2 5 -8 10 -19 10 -23z m-193 -679 c-3 -8 -6 -5 -6 6 -1 11 2 17 5
13 3 -3 4 -12 1 -19z m-910 -904 c-3 -3 -12 -4 -19 -1 -8 3 -5 6 6 6 11 1 17
-2 13 -5z"/>
<path d="M3445 2290 c3 -5 8 -10 11 -10 2 0 4 5 4 10 0 6 -5 10 -11 10 -5 0
-7 -4 -4 -10z"/>
<path d="M598 510 c18 -18 35 -30 38 -27 2 2 -12 17 -33 32 l-38 27 33 -32z"/>
</g>
</svg>
